<svg clip-rule="evenodd" fill-rule="evenodd" stroke-linejoin="round" stroke-miterlimit="2" viewBox="0 0 560 400" xmlns="http://www.w3.org/2000/svg"><g transform="matrix(.9 0 0 .9 100 133.625)"><path d="m12.6 0h58.9c6.9 0 12.7 5.7 12.7 12.6v59.4c0 7-5.8 12.7-12.7 12.7h-58.9c-7 0-12.6-5.7-12.6-12.7v-59.4c0-6.9 5.6-12.6 12.6-12.6z" fill="#a6ce39"/><path d="m44 10.6h-6.7v18.3c2.4 0 4.6.7 6.7 2.1z" fill="#231f20"/><path d="m50.9 41.9c1.3 3.5 2 7 2.2 10.7 0 3.6-.7 7.2-2 10.6s-3.3 6-5.9 8.1c-2.6 2-5.7 3-9.3 3-3.3 0-5.9-.3-8-1.3-2-1-3.3-1.9-4.1-2.9-.6-.8-1-1.4-1.2-1.9l-.1-.5v1c-.4 6.5-10.5 5.3-10.5 5.3v-63.4h11v26.2c1.3-2 3.2-3.5 5.4-4.6 2.2-1 4.7-1.5 7.3-1.5 3.7 0 6.7 1.1 9.3 3.1s4.6 4.8 5.9 8.1zm-11.9 20c1.6-2.5 2.4-5.6 2.3-9.4 0-2.5-.3-4.6-.9-6.6-.7-2-1.7-3.7-3-4.9-1.4-1.2-3.2-1.8-5.2-1.8-2.1 0-3.9.6-5.4 1.9-1.5 1.2-2.7 2.9-3.4 4.9s-1.2 4.2-1.2 6.5.5 4.4 1.2 6.4 1.9 3.7 3.4 5c1.5 1.2 3.3 1.8 5.4 1.8 3 0 5.3-1.2 6.8-3.8zm93.1-20.2c1.4 3.4 2 7.1 2 10.5 0 3.7-.6 7.1-2 10.5-1.2 3.3-3.2 6.1-5.8 8.1s-5.8 3-9.4 3c-3.2 0-5.8-.4-7.8-1.4s-3.4-1.8-4.2-2.8c-.6-.8-1-1.4-1.2-1.8l-.2-.4v.8c-.4 6.6-10.4 5.4-10.4 5.4v-63h11v26h.2c1.2-2 3-3.4 5.4-4.4 2.2-1 4.6-1.6 7.2-1.6 3.6 0 6.8 1 9.4 3 2.6 2.3 4.6 4.9 5.8 8.1zm-11.7 19.9c1.6-2.4 2.4-5.6 2.4-9.2 0-2.4-.4-4.6-1-6.8-.8-1.8-1.8-3.4-3.2-4.6s-3-1.8-5-1.8c-2.2 0-4 .6-5.4 1.8-1.6 1.2-2.8 2.8-3.4 4.8-.8 2.2-1.2 4.2-1.2 6.4 0 2.4.4 4.4 1.2 6.4.6 2 1.8 3.8 3.4 5 1.4 1.2 3.2 1.8 5.4 1.8 3 0 5.2-1.2 6.8-3.8zm27.7-29.8v42.1h-11v-42.1zm-11-11.8v-9.3h11v9.3zm43.7 17.3s.4-5.3 9.2-5.5h1.4v38.3c0 1.6-.2 3.6-.8 5.6-.4 2.2-1.4 4-2.8 5.8s-3.6 3.4-6.2 4.6c-2.8 1.4-6.4 2-11 2-2 0-4-.2-6-.8-2.2-.4-4-1.2-5.6-2.4-1.8-1-3.2-2.4-4.2-4-1.2-1.6-1.8-3.6-2-5.8h11c.4 2 1.6 3.4 3 4.2 1.6.8 3.2 1.2 5.2 1.2 3.2 0 5.4-.8 6.8-2.8 1.4-1.8 2.2-4.2 2-7.2v-5.2h-.2c-1 2-2.8 3.6-5 4.8-2.2 1-4.6 1.4-7 1.4-3 0-5.6-.6-7.6-1.6-2.2-1-4-2.6-5.4-4.4s-2.4-4-3.2-6.6c-.6-2.5-.8-5.1-.8-7.9 0-2.7.2-5.3 1-7.7s1.8-4.6 3.4-6.4c1.4-2 3.2-3.4 5.4-4.6 2-1 4.6-1.6 7.4-1.6 2.6 0 4.8.6 6.8 1.6s3.8 2.6 5 5zm-.6 18.7c.4-1.4.5-2.8.6-4.2 0-1.8-.2-3.4-.4-4.8-.4-1.4-.8-2.8-1.6-4-.6-1.2-1.6-2-2.8-2.8-1.2-.6-2.8-1-4.6-1-1.4 0-2.8.4-4 1-1 .6-2 1.4-2.8 2.6-.6 1-1.2 2.2-1.6 3.6-.2 1.4-.4 2.8-.4 4.4 0 1.4 0 3 .4 4.4.2 1.4.8 2.8 1.4 3.8.8 1.2 1.6 2.2 2.8 3 1.2.6 2.6 1 4.2 1s3-.2 4.2-1c1.2-.6 2.2-1.4 3-2.4s1.2-2.2 1.6-3.6z" fill="#ed1c24"/><path d="m70.2 42c1.3 3.4 2 6.9 2.1 10.4 0 3.6-.7 7.2-2 10.6s-3.3 6-5.9 8.1c-2.6 2-5.7 3-9.3 3-3.3 0-5.9-.3-8-1.3-.5-.3-.9-.5-1.3-.7 1.5-1.2 2.9-2.7 4.1-4.4 1.2.5 2.5.7 3.9.7 8.3 0 11-9 11-15.9s-2.5-16-11-16c-1.3 0-2.5.2-3.6.6-1.1-1.5-2.3-2.9-3.6-4.1l1.2-.6c8.8-4.3 18.8.4 22.4 9.6zm329.8-4.1h-6.6v27c0 3.2 2.8 3.2 4.2 3.2h2.4v5.4c-2.4.2-4.4.6-5.2.6-6.8 0-8.2-4.1-8.2-8.9v-27.4h-5.6v-5.6h5.6v-21.7h6.8v21.8s6 0 6.6 4.8zm-57-3.2-13.7 13.4 16.5 26h-8.8l-12.7-20.9-5.8 5.2v15.7h-6.6v-63.6h6.6v39.7l15.3-15.1c.8-.8 5.4-4.4 9.2-.4zm-46.8 14.9c8.5 2 11.5 5.2 11.5 10.8 0 8.5-6.9 13.7-16.1 13.7-16.1 0-17.3-9.5-17.7-14.5h6.8c.2 3.3 1.2 8.5 10.8 8.5 5 0 9.4-2 9.4-6.6 0-3.2-2.2-4.4-8-5.8l-8-2c-5.8-1.4-9.6-4.5-9.6-10.1 0-9.1 7.3-13.1 15.5-13.1 12.6 0 15.2 8.3 15.6 11.7-4.4 1.4-8.2-3-8.2-3-1.2-1.6-3.6-2.6-8.2-2.6-2 0-8.2.6-8.2 5.8 0 3.2 2.2 4 7.6 5.4zm66.5 18.5c6.4 0 10.2-5.1 10.6-8.3h6.8c-.2 2-2 7.9-7.2 11.3-2 1.4-4.6 3-11.2 3-11.5 0-18.3-8.8-18.3-20.7 0-12.9 6.2-23 19.7-23 11.7 0 17.5 9.5 17.5 24h-29.9c0 8.7 4 13.7 12 13.7zm-.6-31.4c-6.3 0-11.3 5.8-11.3 12.3v2.6c1-1.2 2.6-2.4 5.2-2.6h17.5c-.4-6.5-3-12.3-11.4-12.3zm-91 31.4c.5 0 1.4-.2 2.3-.2v5c-1.2.2-2.2.8-3.8.8-6 0-7-3.2-7.2-6.4-2.7 3-6.7 6.8-14.7 6.8-7.6 0-13-4.9-13-12.1 0-3.4 1-11.5 12.6-12.9l11.4-1.4c1.6-.2 3.6-.8 3.6-4.8 0-4.4-3.2-6.8-9.8-6.8-4.2 0-6.4 1.4-7.6 3.2-.4.4-.6.8-.8 1.2-1 1.6-3.4 3.8-7.2 3.2.4-9.5 6.7-13.3 16.7-13.3 3.3 0 15.1.8 15.1 11.5v23.8c0 1.8 1 2.4 2.4 2.4zm-9.2-9.5v-6.7c-1.2.8-2.8 1.4-11.4 2.6-3.4.4-8.8 1.4-8.8 6.6 0 4.6 2.2 7.2 7.4 7.2 6.4 0 12.8-4.3 12.8-9.7zm-46.2-28.2c10.7 0 16.9 8.9 16.9 20.5 0 9.9-3.9 23.2-17.9 23.2-7 0-9.8-4-11.2-6.4h-.2v1.2c0 .6-.4 3.8-4 4h-2.6v-62.4h7v26.3h.2c2.8-4.4 7-6.4 11.8-6.4zm-1.2 37.7c7.5 0 11.1-6.9 11.2-15.9 0-5.4-.6-15.5-11.4-15.5-9.8 0-11 10.7-11 17.5 0 10.9 6.8 13.9 11.2 13.9z" fill="#231f20"/><path d="m207.6 128.6h-9.5v7.6h10.7v3.9h-15.4v-25.8h14.8v3.9h-10.2v6.6h9.6zm-129.6-14.5h24.7v7.6h-7.1v18.3h-10.3v-18.3h-7.3zm37.2 10.4-5.2 15.5h-9.9l9.7-25.9h10.7l9.9 25.9h-10zm12.9-10.4h24.7v7.6h-7.1v18.3h-10.3v-18.3h-7.3zm37.2 10.4-5.2 15.4h-9.9l9.7-25.9h10.7l9.9 25.9h-10zm47.1 2.4c0-2.2-.1-3.9-.2-5.5h4.1l.2 2.8h.1c.8-1.4 2.8-3.2 5.9-3.2 3.2 0 6.5 2.1 6.5 8v11h-4.7v-10.5c0-2.7-1-4.7-3.5-4.7-1.8 0-3.1 1.3-3.6 2.8-.1.4-.2 1-.2 1.5v10.9h-4.7zm26.6-10.3v4.8h4.4v3.5h-4.4v8.2c0 2.3.6 3.4 2.4 3.4.8 0 1.3-.1 1.8-.2l.1 3.6c-.7.3-1.9.5-3.4.5-1.7 0-3.1-.6-4-1.5-1-1.1-1.5-2.8-1.5-5.2v-8.8h-2.6v-3.5h2.6v-3.5zm10.8 15.3c.1 3.4 2.7 4.8 5.7 4.8 2.1 0 3.7-.3 5.1-.9l.7 3.2c-1.6.7-3.8 1.2-6.4 1.2-6 0-9.5-3.7-9.5-9.4 0-5.1 3.1-10 9-10s7.9 5 7.9 9.1c0 .9-.1 1.6-.2 2zm8.1-3.2c0-1.7-.7-4.5-3.8-4.5-2.9 0-4 2.6-4.3 4.5zm7.8-1.3c0-2.5 0-4.3-.2-6h4l.2 3.5h.1c.9-2.6 3-3.9 5-3.9.5 0 .7 0 1.1.1v4.4c-.4-.1-.8-.1-1.4-.1-2.2 0-3.8 1.4-4.2 3.6-.1.4-.1.9-.1 1.4v9.7h-4.7zm13 .1c0-2.4-.1-4.4-.2-6.2h4.1l.2 2.9h.1c1.4-2.1 3.5-3.3 6.3-3.3 4.2 0 7.7 3.6 7.7 9.5 0 6.7-4.2 10-8.4 10-2.3 0-4.2-1-5.2-2.5h-.1v9.6h-4.6v-20zm4.7 4.7c0 .5 0 .9.1 1.3.5 1.9 2.1 3.3 4.1 3.3 2.9 0 4.7-2.5 4.7-6.1 0-3.3-1.6-6-4.6-6-1.9 0-3.7 1.4-4.1 3.5-.1.4-.2.8-.2 1.2zm17.1-4.8c0-2.5-.1-4.3-.2-6h4l.2 3.5h.1c.9-2.6 3-3.9 5-3.9.5 0 .7 0 1.1.1v4.4c-.4-.1-.8-.1-1.4-.1-2.2 0-3.8 1.4-4.2 3.6-.1.4-.1.9-.1 1.4v9.7h-4.7zm15.3-8.9c-1.6 0-2.7-1.2-2.7-2.7s1.1-2.7 2.8-2.7 2.7 1.2 2.7 2.7-1.1 2.7-2.8 2.7zm-2.3 2.9h4.7v18.6h-4.7zm9.1 14.3c1 .6 3 1.4 4.7 1.4 2 0 3-.9 3-2.1s-.8-1.9-3-2.7c-3.6-1.3-5.1-3.2-5.1-5.4 0-3.3 2.7-5.8 7-5.8 2 0 3.8.5 4.9 1.1l-.9 3.3c-.8-.4-2.3-1.1-3.9-1.1s-2.6.8-2.6 2 .9 1.8 3.2 2.6c3.3 1.2 4.9 2.9 4.9 5.7 0 3.4-2.6 5.8-7.5 5.8-2.2 0-4.2-.5-5.6-1.3zm18.9-3.8c.1 3.4 2.7 4.8 5.7 4.8 2.1 0 3.7-.3 5.1-.9l.7 3.2c-1.6.7-3.8 1.2-6.4 1.2-6 0-9.5-3.7-9.5-9.4 0-5.1 3.1-10 9-10s7.9 5 7.9 9.1c0 .9-.1 1.6-.2 2zm8.1-3.2c0-1.7-.7-4.5-3.8-4.5-2.9 0-4 2.6-4.3 4.5zm-295.1 4-2.2 7.3h-4.8l8.2-25.8h5.9l8.3 25.8h-5l-2.3-7.3zm7.4-3.6-2-6.3c-.5-1.6-.9-3.4-1.3-4.8h-.1c-.4 1.5-.8 3.3-1.2 4.8l-2 6.4h6.6z" fill="#1268b3"/></g></svg>